<svg id="Layer_1" data-name="Layer 1" xmlns="http://www.w3.org/2000/svg" viewBox="0 0 974.36 46.68"><defs><style>.cls-1{fill:#1779ba;}</style></defs><title>logo</title><path class="cls-1" d="M484.8,365.39c0,.29-.12.43-.36.43-.91,0-2.38-.05-4.39-.14s-3.48-.15-4.4-.15c-1.2,0-2.61.05-4.24.15s-2.91.14-3.82.14c-.19,0-.29-.14-.29-.43s.1-.43.29-.43a7.5,7.5,0,0,0,3.06-.47,1.59,1.59,0,0,0,1-1.55,10.56,10.56,0,0,0-1.22-3.67l-7.78-15.77h-13L444.05,356a9.81,9.81,0,0,0-.94,3.88,4.41,4.41,0,0,0,1.8,3.82,8.54,8.54,0,0,0,5,1.3c.24,0,.36.14.36.43s-.12.43-.36.43c-.86,0-2.11-.05-3.74-.14-1.83-.1-3.41-.15-4.76-.15s-2.8.05-4.53.15c-1.54.09-2.81.14-3.82.14-.24,0-.36-.14-.36-.43s.12-.43.36-.43a6.67,6.67,0,0,0,3.39-.8,8.19,8.19,0,0,0,2.66-2.84,52.08,52.08,0,0,0,3.1-6.08l15.48-34.85c.09-.15.31-.22.64-.22s.53.07.58.22L476.59,356a34.17,34.17,0,0,0,4.21,7.09,4.88,4.88,0,0,0,3.64,1.91C484.68,365,484.8,365.1,484.8,365.39ZM450.38,341.7h11.38l-6-12.1Z" transform="translate(-432.74 -320.17)"/><path class="cls-1" d="M531.81,365.39c0,.29,0,.43-.14.43-1.3,0-2.33,0-3.1-.07l-4.32-.07-4.89.07c-.82.05-2,.07-3.39.07-.09,0-.14-.14-.14-.43s0-.43.14-.43a10.42,10.42,0,0,0,3.32-.4,2.35,2.35,0,0,0,1.47-1.4A7.72,7.72,0,0,0,521,360l-1.15-22.9-11.59,28.23a.51.51,0,0,1-.5.28.59.59,0,0,1-.58-.28L493.51,338.6l-.43,18.51c-.05,2.73.35,4.73,1.19,6a4.47,4.47,0,0,0,4,1.88c.15,0,.22.14.22.43s-.07.43-.22.43c-1.1,0-2,0-2.59-.07l-3.31-.07-3.31.07c-.68.05-1.61.07-2.81.07-.1,0-.15-.14-.15-.43s.05-.43.15-.43a4.55,4.55,0,0,0,4.07-1.88c.84-1.24,1.28-3.24,1.33-6l.43-20.88a6.58,6.58,0,0,0-5.54-3.24c-.1,0-.15-.15-.15-.43s.05-.44.15-.44l5.32.08,4.11-.08a2.16,2.16,0,0,1,1.65.69,13.15,13.15,0,0,1,1.8,3.06L510.29,357l9.43-23.12a2.81,2.81,0,0,1,.93-1.29,2.13,2.13,0,0,1,1.3-.51l4.25.08,5.25-.08c.1,0,.15.15.15.44s-.05.43-.15.43a6.68,6.68,0,0,0-4.1,1c-.82.65-1.15,1.93-1,3.85L527.49,360a16.49,16.49,0,0,0,.44,3.24A2,2,0,0,0,529,364.6a7.06,7.06,0,0,0,2.63.36C531.77,365,531.81,365.1,531.81,365.39Z" transform="translate(-432.74 -320.17)"/><path class="cls-1" d="M564.14,356q.36,0,.36.21c-.34,3.46-.5,6.29-.5,8.5a1.25,1.25,0,0,1-.22.83,1.1,1.1,0,0,1-.86.25H536.13c-.09,0-.14-.14-.14-.43s0-.43.14-.43a10.18,10.18,0,0,0,3.17-.36,2.17,2.17,0,0,0,1.37-1.41A10.49,10.49,0,0,0,541,360V338a10.18,10.18,0,0,0-.36-3.17,2.3,2.3,0,0,0-1.37-1.41,9.44,9.44,0,0,0-3.17-.39c-.09,0-.14-.15-.14-.43s0-.44.14-.44h25.49c.48,0,.72.2.72.58l.07,4.46c.05.92.07,2.07.07,3.46,0,.14-.13.22-.39.22s-.42-.08-.47-.22a10.73,10.73,0,0,0-3.53-5.4,8.49,8.49,0,0,0-5.54-2.16h-1a7.13,7.13,0,0,0-2.77.4,2.19,2.19,0,0,0-1.23,1.4,11.51,11.51,0,0,0-.32,3.17v9.79c4-.1,6.84-.25,8.57-.47s2.71-.32,3-.32.25.17.32.5a4.71,4.71,0,0,1,.11,1.08,6.12,6.12,0,0,1-.11,1.23c-.07.38-.17.57-.32.57s-1.22-.13-3-.39a73.69,73.69,0,0,0-8.57-.54V359.7a11.53,11.53,0,0,0,.32,3.13,2.19,2.19,0,0,0,1.23,1.44,7.13,7.13,0,0,0,2.77.4h1.66a9.72,9.72,0,0,0,6.19-2.38,13.72,13.72,0,0,0,4.32-6.05C563.76,356.1,563.9,356,564.14,356Z" transform="translate(-432.74 -320.17)"/><path class="cls-1" d="M607.63,365.39c0,.29-.07.43-.22.43H596.76q-1.15,0-4.14-4.36a122.57,122.57,0,0,1-7-11.84,22.51,22.51,0,0,1-3.1.22,14.43,14.43,0,0,1-1.73-.08V360a11.39,11.39,0,0,0,.33,3.2,2.06,2.06,0,0,0,1.29,1.41,9.88,9.88,0,0,0,3.14.36c.09,0,.14.14.14.43s0,.43-.14.43c-1.4,0-2.5,0-3.32-.07l-4.75-.07-4.46.07c-.87.05-2,.07-3.53.07-.1,0-.14-.14-.14-.43s0-.43.14-.43a10.18,10.18,0,0,0,3.17-.36,2.17,2.17,0,0,0,1.37-1.41,10.49,10.49,0,0,0,.36-3.2V338a10.18,10.18,0,0,0-.36-3.17,2.3,2.3,0,0,0-1.37-1.41,9.17,9.17,0,0,0-3.1-.39c-.09,0-.14-.15-.14-.43s0-.44.14-.44l3.53.08c1.82.09,3.29.14,4.39.14.91,0,1.75,0,2.52-.07l2-.15q2.37-.21,4.32-.21,5.33,0,8.1,1.8a5.81,5.81,0,0,1,2.77,5.18,9,9,0,0,1-1.73,5.26,11.94,11.94,0,0,1-4.75,3.89,103.05,103.05,0,0,0,6.7,10.18,23.43,23.43,0,0,0,5.11,5.19,8.51,8.51,0,0,0,4.82,1.55C607.56,365,607.63,365.1,607.63,365.39Zm-24.55-16.85q4.24,0,5.9-1.94a8.72,8.72,0,0,0,1.66-5.76q0-7.63-6-7.64c-1.58,0-2.62.33-3.1,1s-.72,1.95-.72,3.92v10.37C581.28,348.52,582,348.54,583.08,348.54Z" transform="translate(-432.74 -320.17)"/><path class="cls-1" d="M620.59,363.19A2.14,2.14,0,0,0,622,364.6a10.11,10.11,0,0,0,3.16.36c.1,0,.15.14.15.43s0,.43-.15.43c-1.44,0-2.56,0-3.38-.07l-4.75-.07-4.47.07c-.86.05-2,.07-3.52.07-.1,0-.15-.14-.15-.43s0-.43.15-.43a10.56,10.56,0,0,0,3.24-.36,2.15,2.15,0,0,0,1.36-1.41A10.49,10.49,0,0,0,614,360V338a10.18,10.18,0,0,0-.36-3.17,2.28,2.28,0,0,0-1.4-1.41A9.77,9.77,0,0,0,609,333c-.1,0-.15-.15-.15-.43s0-.44.15-.44l3.52.08c1.83.09,3.32.14,4.47.14s2.9,0,4.82-.14l3.31-.08c.1,0,.15.15.15.44s0,.43-.15.43a8.6,8.6,0,0,0-3.13.43,2.39,2.39,0,0,0-1.4,1.48,10.49,10.49,0,0,0-.36,3.2V360A10.49,10.49,0,0,0,620.59,363.19Z" transform="translate(-432.74 -320.17)"/><path class="cls-1" d="M655.9,331.84a21.2,21.2,0,0,1,5.15,1.51,1.3,1.3,0,0,1,.65.47,1.61,1.61,0,0,1,.14.75l.51,7.42c0,.14-.14.24-.4.29s-.42,0-.47-.22a18.44,18.44,0,0,0-5.29-7.06,11.61,11.61,0,0,0-7.16-2.3,9.82,9.82,0,0,0-8.39,4.18q-3.06,4.17-3.06,10.87a25.76,25.76,0,0,0,1.4,8.49,14.68,14.68,0,0,0,4.4,6.56,11,11,0,0,0,7.37,2.52,9.93,9.93,0,0,0,6.67-2.31,19.25,19.25,0,0,0,4.78-7.27c0-.19.19-.26.43-.22s.37.15.37.29l-.73,7.63a2,2,0,0,1-.21.8,2.07,2.07,0,0,1-.79.5,34.49,34.49,0,0,1-11.52,1.94q-6.84,0-11.24-2.73a16.64,16.64,0,0,1-6.37-6.84,18.92,18.92,0,0,1-2-8.28,16,16,0,0,1,2.63-8.93,18.13,18.13,0,0,1,7.2-6.34,22.24,22.24,0,0,1,10.12-2.3A31.69,31.69,0,0,1,655.9,331.84Z" transform="translate(-432.74 -320.17)"/><path class="cls-1" d="M706.63,365.39c0,.29-.1.43-.29.43-1,0-2.45-.05-4.47-.14s-3.45-.15-4.32-.15-2,.05-3.6.15-2.61.14-3.24.14c-.19,0-.28-.14-.28-.43s.09-.43.28-.43a5.26,5.26,0,0,0,2.49-.44,1.45,1.45,0,0,0,.75-1.36,9.84,9.84,0,0,0-1.08-3.39l-4.53-9.72h-8.93L676.53,357a13.58,13.58,0,0,0-1.22,4.61,2.81,2.81,0,0,0,1.26,2.59,7.34,7.34,0,0,0,3.85.8c.24,0,.36.14.36.43s-.12.43-.36.43c-.67,0-1.63-.05-2.88-.14s-2.59-.15-3.75-.15-2.61.05-4.24.15c-1.44.09-2.62.14-3.53.14-.24,0-.36-.14-.36-.43s.12-.43.36-.43a8.49,8.49,0,0,0,3.6-.65,6.49,6.49,0,0,0,2.52-2.41,36.25,36.25,0,0,0,2.73-5.58L685.53,331a.46.46,0,0,1,.43-.28.34.34,0,0,1,.36.28L697.91,356a54,54,0,0,0,3,5.76,7.51,7.51,0,0,0,2.38,2.55,6,6,0,0,0,3.06.69C706.53,365,706.63,365.1,706.63,365.39Zm-26.57-17h7.49l-4-8.5Z" transform="translate(-432.74 -320.17)"/><path class="cls-1" d="M746.08,332.12v.44c0,.28-.07.43-.21.43a4.6,4.6,0,0,0-4.11,1.91q-1.29,1.91-1.29,6v25.7c0,.1-.12.17-.36.22a.57.57,0,0,1-.51-.07L714.76,338l-.14-.15v19.23c0,2.73.42,4.73,1.26,6a4.47,4.47,0,0,0,4,1.88c.1,0,.15.14.15.43s0,.43-.15.43c-1.15,0-2,0-2.66-.07l-3.24-.07-3.31.07c-.67.05-1.61.07-2.81.07-.1,0-.14-.14-.14-.43s0-.43.14-.43a4.55,4.55,0,0,0,4.07-1.88c.84-1.24,1.26-3.24,1.26-6V336.3a16.24,16.24,0,0,0-3.13-2.56,5.35,5.35,0,0,0-2.63-.75c-.1,0-.15-.15-.15-.43s.05-.44.15-.44l4,.08c.43,0,1,0,1.62,0s2,0,4.07,0a1.54,1.54,0,0,1,1,.36,7.6,7.6,0,0,1,1.15,1.44l1.51,1.95,18.22,21v-16c0-2.79-.41-4.8-1.23-6.05a4.36,4.36,0,0,0-4-1.87c-.14,0-.21-.15-.21-.43s.07-.44.21-.44l2.67.08c1.34.09,2.42.14,3.24.14s1.94,0,3.38-.14l2.74-.08Z" transform="translate(-432.74 -320.17)"/><path class="cls-1" d="M814.48,365.39c0,.29-.07.43-.22.43H802.67q-1.65,0-6.15-6t-11-16.81a13.25,13.25,0,0,1-2.38.21c-1.78,0-3,0-3.74-.07V360a9.72,9.72,0,0,0,.39,3.24,2.3,2.3,0,0,0,1.51,1.37,12.77,12.77,0,0,0,3.57.36c.09,0,.14.14.14.43s0,.43-.14.43c-1.59,0-2.81,0-3.67-.07l-5.33-.07-5.19.07c-.91.05-2.16.07-3.74.07-.14,0-.22-.14-.22-.43s.08-.43.22-.43a12.64,12.64,0,0,0,3.56-.36,2.37,2.37,0,0,0,1.55-1.41,8.81,8.81,0,0,0,.43-3.2V326.65a9.48,9.48,0,0,0-.39-3.17,2.39,2.39,0,0,0-1.55-1.4,11.74,11.74,0,0,0-3.53-.4c-.09,0-.14-.14-.14-.43s.05-.43.14-.43l3.75.07c2.11.1,3.81.15,5.11.15s3-.08,4.53-.22c.58-.05,1.28-.1,2.09-.14s1.71-.08,2.67-.08q6.41,0,9.86,2.38a7.67,7.67,0,0,1,3.46,6.7,11.37,11.37,0,0,1-2,6.4,15.56,15.56,0,0,1-5.26,4.9q5.91,9.07,9.9,14.22a39.77,39.77,0,0,0,7.1,7.45,10.15,10.15,0,0,0,6,2.31C814.41,365,814.48,365.1,814.48,365.39Zm-30.89-24q4.32,0,6-1.94c1.15-1.3,1.73-3.67,1.73-7.13q0-5.83-2-8.1A6.81,6.81,0,0,0,784,322c-1.73,0-2.91.34-3.56,1s-1,1.94-1,3.82v14.32A24.89,24.89,0,0,0,783.59,341.41Z" transform="translate(-432.74 -320.17)"/><path class="cls-1" d="M843.93,356q.36,0,.36.21-.51,5.19-.51,8.5a1.31,1.31,0,0,1-.21.83,1.13,1.13,0,0,1-.87.25H815.92c-.1,0-.14-.14-.14-.43s0-.43.14-.43a10.18,10.18,0,0,0,3.17-.36,2.19,2.19,0,0,0,1.37-1.41,10.49,10.49,0,0,0,.36-3.2V338a10.18,10.18,0,0,0-.36-3.17,2.33,2.33,0,0,0-1.37-1.41,9.44,9.44,0,0,0-3.17-.39c-.1,0-.14-.15-.14-.43s0-.44.14-.44h25.49c.48,0,.72.2.72.58l.07,4.46c0,.92.07,2.07.07,3.46,0,.14-.13.22-.39.22s-.42-.08-.47-.22a10.8,10.8,0,0,0-3.53-5.4,8.53,8.53,0,0,0-5.54-2.16h-1a7.13,7.13,0,0,0-2.77.4,2.19,2.19,0,0,0-1.23,1.4A11.51,11.51,0,0,0,827,338v9.79c4-.1,6.84-.25,8.57-.47s2.71-.32,2.95-.32.25.17.32.5a5.34,5.34,0,0,1,.11,1.08,7,7,0,0,1-.11,1.23c-.07.38-.18.57-.32.57s-1.23-.13-2.95-.39a73.69,73.69,0,0,0-8.57-.54V359.7a11.53,11.53,0,0,0,.32,3.13,2.19,2.19,0,0,0,1.23,1.44,7.13,7.13,0,0,0,2.77.4H833a9.74,9.74,0,0,0,6.2-2.38,13.88,13.88,0,0,0,4.32-6.05C843.54,356.1,843.69,356,843.93,356Z" transform="translate(-432.74 -320.17)"/><path class="cls-1" d="M860.2,359.7a8.55,8.55,0,0,0,.39,2.95,2.43,2.43,0,0,0,1.45,1.41,9.41,9.41,0,0,0,3.13.39h2.16a10.4,10.4,0,0,0,7-2.59,14.21,14.21,0,0,0,4.32-7c0-.1.2-.14.47-.11s.4.08.4.18a75.38,75.38,0,0,0-.51,9.79.92.92,0,0,1-1.08,1.08H849.33c-.1,0-.15-.14-.15-.43s.05-.43.15-.43a8.88,8.88,0,0,0,2.95-.36,2.08,2.08,0,0,0,1.26-1.41,11.87,11.87,0,0,0,.32-3.2V338a11.51,11.51,0,0,0-.32-3.17,2.22,2.22,0,0,0-1.26-1.41,8.24,8.24,0,0,0-2.95-.39c-.1,0-.15-.15-.15-.43s.05-.44.15-.44l3.45.08c1.92.09,3.41.14,4.47.14,1.24,0,2.83,0,4.75-.14l3.24-.08c.14,0,.22.15.22.44s-.08.43-.22.43a10.11,10.11,0,0,0-3.28.39,2.3,2.3,0,0,0-1.4,1.44,10.61,10.61,0,0,0-.36,3.21Z" transform="translate(-432.74 -320.17)"/><path class="cls-1" d="M894.9,363.19a2.17,2.17,0,0,0,1.37,1.41,10.18,10.18,0,0,0,3.17.36c.09,0,.14.14.14.43s-.05.43-.14.43c-1.44,0-2.57,0-3.39-.07l-4.75-.07-4.46.07c-.87.05-2,.07-3.53.07-.1,0-.14-.14-.14-.43s0-.43.14-.43a10.48,10.48,0,0,0,3.24-.36,2.17,2.17,0,0,0,1.37-1.41,10.49,10.49,0,0,0,.36-3.2V338a10.18,10.18,0,0,0-.36-3.17,2.29,2.29,0,0,0-1.41-1.41,9.73,9.73,0,0,0-3.2-.39c-.1,0-.14-.15-.14-.43s0-.44.14-.44l3.53.08c1.82.09,3.31.14,4.46.14,1.3,0,2.91,0,4.83-.14l3.31-.08c.09,0,.14.15.14.44s-.05.43-.14.43a8.56,8.56,0,0,0-3.13.43,2.38,2.38,0,0,0-1.41,1.48,10.49,10.49,0,0,0-.36,3.2V360A10.49,10.49,0,0,0,894.9,363.19Z" transform="translate(-432.74 -320.17)"/><path class="cls-1" d="M913.23,364.27a16.76,16.76,0,0,1-8.75-14.72,18.23,18.23,0,0,1,2.55-9.76,16.52,16.52,0,0,1,7.24-6.33,25.62,25.62,0,0,1,11-2.2,29.48,29.48,0,0,1,5.94.58,16.5,16.5,0,0,1,4.78,1.65,1.67,1.67,0,0,1,.58.58,3.12,3.12,0,0,1,.22,1l.43,6.76c0,.15-.14.23-.4.26s-.42,0-.47-.18q-4.53-9.23-12.81-9.22a10.41,10.41,0,0,0-8.75,4.18q-3.21,4.17-3.2,11.73a21.85,21.85,0,0,0,1.62,8.68,13.29,13.29,0,0,0,4.64,5.87,14.45,14.45,0,0,0,11.74,1.44,3.58,3.58,0,0,0,1.94-2.38,21.7,21.7,0,0,0,.5-5.47,7.32,7.32,0,0,0-.32-2.63,1.85,1.85,0,0,0-1.37-1,17.6,17.6,0,0,0-3.63-.25c-.29,0-.44-.19-.44-.58a.77.77,0,0,1,.11-.39.31.31,0,0,1,.25-.18q3.75.29,7.56.29c1.16,0,3.07-.05,5.76-.15.1,0,.18.06.26.18a.65.65,0,0,1,.1.33c0,.33-.12.5-.36.5a3,3,0,0,0-1.69.22,1.61,1.61,0,0,0-.61,1.18,23.3,23.3,0,0,0-.14,3.21,36.05,36.05,0,0,0,.18,4.53c.11.87.18,1.47.18,1.8s0,.47-.15.54a3.67,3.67,0,0,1-.72.33q-4.82,2-13.75,2A20.08,20.08,0,0,1,913.23,364.27Z" transform="translate(-432.74 -320.17)"/><path class="cls-1" d="M956.32,363.19a2.15,2.15,0,0,0,1.36,1.41,10.22,10.22,0,0,0,3.17.36c.1,0,.15.14.15.43s0,.43-.15.43c-1.44,0-2.57,0-3.38-.07l-4.75-.07-4.47.07c-.86.05-2,.07-3.53.07-.09,0-.14-.14-.14-.43s0-.43.14-.43a10.48,10.48,0,0,0,3.24-.36,2.14,2.14,0,0,0,1.37-1.41,10.49,10.49,0,0,0,.36-3.2V338a10.18,10.18,0,0,0-.36-3.17,2.3,2.3,0,0,0-1.4-1.41,9.84,9.84,0,0,0-3.21-.39c-.09,0-.14-.15-.14-.43s0-.44.14-.44l3.53.08c1.83.09,3.31.14,4.47.14s2.9,0,4.82-.14l3.31-.08c.1,0,.15.15.15.44s0,.43-.15.43a8.6,8.6,0,0,0-3.13.43,2.36,2.36,0,0,0-1.4,1.48,10.49,10.49,0,0,0-.36,3.2V360A10.49,10.49,0,0,0,956.32,363.19Z" transform="translate(-432.74 -320.17)"/><path class="cls-1" d="M974.28,364.27a16.79,16.79,0,0,1-6.19-6.44,18,18,0,0,1-2.2-8.79,16.16,16.16,0,0,1,2.85-9.57,18.21,18.21,0,0,1,7.3-6.12,21.44,21.44,0,0,1,9.15-2.09,16.39,16.39,0,0,1,9,2.48,17.56,17.56,0,0,1,8.13,14.8,17.09,17.09,0,0,1-2.52,9,19,19,0,0,1-16.41,9.14A17.25,17.25,0,0,1,974.28,364.27Zm18.14-3.13q2.77-4,2.78-10.94a23.93,23.93,0,0,0-1.52-8.68,14.54,14.54,0,0,0-4.32-6.23,10.14,10.14,0,0,0-6.62-2.3,8.26,8.26,0,0,0-7.2,3.6Q973,340.19,973,347a26.32,26.32,0,0,0,1.55,9.25,15.67,15.67,0,0,0,4.28,6.51,9.27,9.27,0,0,0,6.27,2.38A8.51,8.51,0,0,0,992.42,361.14Z" transform="translate(-432.74 -320.17)"/><path class="cls-1" d="M1036.81,334.61q-1.36-1.62-4.61-1.62c-.14,0-.21-.15-.21-.43s.07-.44.21-.44l3,.08c1.53.09,2.8.14,3.81.14.77,0,1.87,0,3.31-.14l2.88-.08c.1,0,.15.15.15.44s0,.43-.15.43a4.82,4.82,0,0,0-4.1,1.62q-1.23,1.62-1.23,5.43v12.53q0,6.71-3.7,10.44t-10,3.75a16.94,16.94,0,0,1-7.42-1.62,13.14,13.14,0,0,1-5.4-4.65,12.61,12.61,0,0,1-2-7.2V338a10.18,10.18,0,0,0-.36-3.17,2.29,2.29,0,0,0-1.33-1.41,9.1,9.1,0,0,0-3.13-.39c-.15,0-.22-.15-.22-.43s.07-.44.22-.44l3.38.08c1.83.09,3.32.14,4.47.14s2.83,0,4.75-.14l3.31-.08c.1,0,.14.15.14.44s0,.43-.14.43a8.59,8.59,0,0,0-3.17.43,2.5,2.5,0,0,0-1.4,1.48,9.41,9.41,0,0,0-.4,3.2v13.32q0,6.48,2.95,9.54a10.24,10.24,0,0,0,7.71,3.06,9.55,9.55,0,0,0,7.38-2.92c1.8-1.94,2.7-4.74,2.7-8.38V340Q1038.18,336.23,1036.81,334.61Z" transform="translate(-432.74 -320.17)"/><path class="cls-1" d="M1057.48,342.38a29.79,29.79,0,0,0,6.26,3.93c2.06,1.1,3.71,2.05,4.93,2.84a11,11,0,0,1,3.13,3.06,7.48,7.48,0,0,1,1.3,4.39,8.7,8.7,0,0,1-1.62,5.12,11,11,0,0,1-4.5,3.63,15.39,15.39,0,0,1-6.55,1.33,22.84,22.84,0,0,1-5.91-.75,11.85,11.85,0,0,1-4.17-1.84c-.39-.19-.6-.69-.65-1.51l-.43-7.78v-.07c0-.19.12-.3.36-.32a.45.45,0,0,1,.5.25,26.38,26.38,0,0,0,4.9,7.42,9,9,0,0,0,6.62,3.09,5.62,5.62,0,0,0,3.82-1.37,5.14,5.14,0,0,0,1.58-4.1,7,7,0,0,0-2.19-5.36,30.33,30.33,0,0,0-6.45-4.29,50.24,50.24,0,0,1-4.57-2.77,11.27,11.27,0,0,1-2.88-2.92,7.07,7.07,0,0,1-1.19-4.1,7.6,7.6,0,0,1,3.49-6.59,14.51,14.51,0,0,1,8.46-2.41,22,22,0,0,1,4.43.47,20.15,20.15,0,0,1,3.93,1.19,2.33,2.33,0,0,1,.79.57,1.79,1.79,0,0,1,.29.79l.14,6.63q0,.29-.36.36c-.24.05-.41,0-.5-.15a14.68,14.68,0,0,0-1.73-3.34,13.76,13.76,0,0,0-3.42-3.53,8,8,0,0,0-4.79-1.55,5,5,0,0,0-3.82,1.37,4.94,4.94,0,0,0-1.29,3.53A6,6,0,0,0,1057.48,342.38Z" transform="translate(-432.74 -320.17)"/><path class="cls-1" d="M1127.75,354.44a.77.77,0,0,1,.39.11q.18.1.18.18a77.33,77.33,0,0,0-.72,10,1.31,1.31,0,0,1-.21.83,1.14,1.14,0,0,1-.87.25h-31.25c-.14,0-.21-.14-.21-.43s.07-.43.21-.43a12.72,12.72,0,0,0,3.57-.36,2.27,2.27,0,0,0,1.51-1.41,9.67,9.67,0,0,0,.4-3.2V326.65a9.43,9.43,0,0,0-.4-3.17,2.37,2.37,0,0,0-1.55-1.4,11.74,11.74,0,0,0-3.53-.4c-.14,0-.21-.14-.21-.43s.07-.43.21-.43h30c.48,0,.72.22.72.65l.14,9.36c0,.09-.13.17-.4.21s-.42,0-.46-.14q-1.74-8.2-10-8.21h-2.88a5.58,5.58,0,0,0-3.67.94,4,4,0,0,0-1.08,3.17v14.68h6.91q7.92,0,7.92-5.32c0-.15.13-.22.39-.22s.4.07.4.22l-.07,6.26.07,3.38c.1,1.54.14,2.79.14,3.75,0,.09-.14.14-.43.14s-.43-.05-.43-.14q0-6.19-8.06-6.19h-6.84V359.7a4.7,4.7,0,0,0,.9,3.31,4.32,4.32,0,0,0,3.2.94h3.53q9.65,0,12.24-9.36C1127.46,354.49,1127.55,354.44,1127.75,354.44Z" transform="translate(-432.74 -320.17)"/><path class="cls-1" d="M1159.68,331.84a21.34,21.34,0,0,1,5.15,1.51,1.26,1.26,0,0,1,.64.47,1.48,1.48,0,0,1,.15.75l.5,7.42c0,.14-.13.24-.39.29s-.43,0-.47-.22A18.44,18.44,0,0,0,1160,335a11.64,11.64,0,0,0-7.17-2.3,9.83,9.83,0,0,0-8.39,4.18q-3.06,4.17-3.06,10.87a25.51,25.51,0,0,0,1.41,8.49,14.66,14.66,0,0,0,4.39,6.56,11,11,0,0,0,7.38,2.52,9.89,9.89,0,0,0,6.66-2.31,19.26,19.26,0,0,0,4.79-7.27c0-.19.19-.26.43-.22s.36.15.36.29l-.72,7.63a1.22,1.22,0,0,1-1,1.3,34.45,34.45,0,0,1-11.52,1.94q-6.84,0-11.23-2.73a16.57,16.57,0,0,1-6.37-6.84,18.92,18.92,0,0,1-2-8.28,15.94,15.94,0,0,1,2.63-8.93,18.13,18.13,0,0,1,7.2-6.34,22.17,22.17,0,0,1,10.11-2.3A31.71,31.71,0,0,1,1159.68,331.84Z" transform="translate(-432.74 -320.17)"/><path class="cls-1" d="M1180,364.27a16.79,16.79,0,0,1-6.19-6.44,18,18,0,0,1-2.2-8.79,16.16,16.16,0,0,1,2.85-9.57,18.18,18.18,0,0,1,7.31-6.12,21.36,21.36,0,0,1,9.14-2.09,16.39,16.39,0,0,1,9,2.48,17.6,17.6,0,0,1,8.14,14.8,17.1,17.1,0,0,1-2.53,9,19,19,0,0,1-16.41,9.14A17.27,17.27,0,0,1,1180,364.27Zm18.14-3.13q2.78-4,2.78-10.94a23.93,23.93,0,0,0-1.52-8.68,14.61,14.61,0,0,0-4.31-6.23,10.19,10.19,0,0,0-6.63-2.3,8.26,8.26,0,0,0-7.2,3.6q-2.52,3.6-2.52,10.37a26.32,26.32,0,0,0,1.55,9.25,15.67,15.67,0,0,0,4.28,6.51,9.27,9.27,0,0,0,6.27,2.38A8.51,8.51,0,0,0,1198.12,361.14Z" transform="translate(-432.74 -320.17)"/><path class="cls-1" d="M1223.5,359.7a8.51,8.51,0,0,0,.4,2.95,2.39,2.39,0,0,0,1.44,1.41,9.49,9.49,0,0,0,3.13.39h2.16a10.42,10.42,0,0,0,7-2.59,14.36,14.36,0,0,0,4.32-7c0-.1.2-.14.47-.11s.39.08.39.18a75.65,75.65,0,0,0-.5,9.79,1.15,1.15,0,0,1-.26.83,1.1,1.1,0,0,1-.82.25h-28.59c-.09,0-.14-.14-.14-.43s0-.43.14-.43a8.8,8.8,0,0,0,2.95-.36,2,2,0,0,0,1.26-1.41,11.39,11.39,0,0,0,.33-3.2V338a11.05,11.05,0,0,0-.33-3.17,2.16,2.16,0,0,0-1.26-1.41,8.17,8.17,0,0,0-2.95-.39c-.09,0-.14-.15-.14-.43s0-.44.14-.44l3.46.08c1.92.09,3.41.14,4.46.14,1.25,0,2.83,0,4.75-.14l3.24-.08c.15,0,.22.15.22.44s-.07.43-.22.43a10,10,0,0,0-3.27.39,2.25,2.25,0,0,0-1.4,1.44,10.23,10.23,0,0,0-.37,3.21Z" transform="translate(-432.74 -320.17)"/><path class="cls-1" d="M1254.57,364.27a16.79,16.79,0,0,1-6.19-6.44,18.14,18.14,0,0,1-2.2-8.79,16.16,16.16,0,0,1,2.85-9.57,18.18,18.18,0,0,1,7.31-6.12,21.36,21.36,0,0,1,9.14-2.09,16.39,16.39,0,0,1,9,2.48,17.46,17.46,0,0,1,5.62,23.8,19.08,19.08,0,0,1-16.42,9.14A17.27,17.27,0,0,1,1254.57,364.27Zm18.15-3.13q2.76-4,2.77-10.94a24.15,24.15,0,0,0-1.51-8.68,14.72,14.72,0,0,0-4.32-6.23A10.17,10.17,0,0,0,1263,333a8.26,8.26,0,0,0-7.2,3.6q-2.52,3.6-2.52,10.37a26.32,26.32,0,0,0,1.55,9.25,15.67,15.67,0,0,0,4.28,6.51,9.28,9.28,0,0,0,6.27,2.38A8.54,8.54,0,0,0,1272.72,361.14Z" transform="translate(-432.74 -320.17)"/><path class="cls-1" d="M1296,364.27a16.82,16.82,0,0,1-8.75-14.72,18.23,18.23,0,0,1,2.56-9.76,16.47,16.47,0,0,1,7.24-6.33,25.6,25.6,0,0,1,11-2.2,29.41,29.41,0,0,1,5.94.58,16.57,16.57,0,0,1,4.79,1.65,1.67,1.67,0,0,1,.58.58,3.49,3.49,0,0,1,.21,1l.43,6.76c0,.15-.13.23-.39.26s-.42,0-.47-.18q-4.53-9.23-12.82-9.22a10.4,10.4,0,0,0-8.74,4.18q-3.21,4.17-3.21,11.73a21.85,21.85,0,0,0,1.62,8.68,13.31,13.31,0,0,0,4.65,5.87,12.22,12.22,0,0,0,7.12,2.08,12.07,12.07,0,0,0,4.61-.64,3.56,3.56,0,0,0,2-2.38,21.7,21.7,0,0,0,.5-5.47,7.56,7.56,0,0,0-.32-2.63,1.87,1.87,0,0,0-1.37-1,17.72,17.72,0,0,0-3.64-.25c-.29,0-.43-.19-.43-.58a.77.77,0,0,1,.11-.39.29.29,0,0,1,.25-.18q3.75.29,7.56.29,1.72,0,5.76-.15a.29.29,0,0,1,.25.18.68.68,0,0,1,.11.33c0,.33-.12.5-.36.5a3,3,0,0,0-1.69.22,1.54,1.54,0,0,0-.61,1.18,22.83,22.83,0,0,0-.15,3.21,38.15,38.15,0,0,0,.18,4.53,15.76,15.76,0,0,1,.18,1.8c0,.29-.05.47-.14.54a3.67,3.67,0,0,1-.72.33q-4.83,2-13.75,2A20.12,20.12,0,0,1,1296,364.27Z" transform="translate(-432.74 -320.17)"/><path class="cls-1" d="M1339.06,363.19a2.17,2.17,0,0,0,1.37,1.41,10.18,10.18,0,0,0,3.17.36c.1,0,.14.14.14.43s0,.43-.14.43c-1.44,0-2.57,0-3.38-.07l-4.76-.07-4.46.07c-.86.05-2,.07-3.53.07-.09,0-.14-.14-.14-.43s.05-.43.14-.43a10.48,10.48,0,0,0,3.24-.36,2.17,2.17,0,0,0,1.37-1.41,10.49,10.49,0,0,0,.36-3.2V338a10.18,10.18,0,0,0-.36-3.17,2.3,2.3,0,0,0-1.4-1.41,9.84,9.84,0,0,0-3.21-.39c-.09,0-.14-.15-.14-.43s.05-.44.14-.44l3.53.08c1.82.09,3.31.14,4.46.14s2.91,0,4.83-.14l3.31-.08c.1,0,.14.15.14.44s0,.43-.14.43a8.56,8.56,0,0,0-3.13.43,2.38,2.38,0,0,0-1.41,1.48,10.49,10.49,0,0,0-.36,3.2V360A10.49,10.49,0,0,0,1339.06,363.19Z" transform="translate(-432.74 -320.17)"/><path class="cls-1" d="M1376.65,356q.36,0,.36.21-.51,5.19-.51,8.5a1.31,1.31,0,0,1-.21.83,1.14,1.14,0,0,1-.87.25h-26.78c-.1,0-.15-.14-.15-.43s0-.43.15-.43a10.22,10.22,0,0,0,3.17-.36,2.15,2.15,0,0,0,1.36-1.41,10.49,10.49,0,0,0,.36-3.2V338a10.18,10.18,0,0,0-.36-3.17,2.29,2.29,0,0,0-1.36-1.41,9.48,9.48,0,0,0-3.17-.39c-.1,0-.15-.15-.15-.43s0-.44.15-.44h25.49c.48,0,.72.2.72.58l.07,4.46c0,.92.07,2.07.07,3.46,0,.14-.13.22-.4.22s-.42-.08-.46-.22a10.8,10.8,0,0,0-3.53-5.4,8.53,8.53,0,0,0-5.55-2.16h-1a7.19,7.19,0,0,0-2.78.4,2.17,2.17,0,0,0-1.22,1.4,11.13,11.13,0,0,0-.32,3.17v9.79c4-.1,6.84-.25,8.56-.47s2.71-.32,3-.32.25.17.32.5a5.34,5.34,0,0,1,.11,1.08,7,7,0,0,1-.11,1.23c-.07.38-.18.57-.32.57s-1.23-.13-3-.39a73.3,73.3,0,0,0-8.56-.54V359.7a11.14,11.14,0,0,0,.32,3.13,2.17,2.17,0,0,0,1.22,1.44,7.19,7.19,0,0,0,2.78.4h1.65a9.72,9.72,0,0,0,6.19-2.38,13.72,13.72,0,0,0,4.32-6.05C1376.26,356.1,1376.41,356,1376.65,356Z" transform="translate(-432.74 -320.17)"/><path class="cls-1" d="M1391.48,342.38a29.79,29.79,0,0,0,6.26,3.93c2.06,1.1,3.71,2.05,4.93,2.84a11.14,11.14,0,0,1,3.14,3.06,7.55,7.55,0,0,1,1.29,4.39,8.7,8.7,0,0,1-1.62,5.12,11,11,0,0,1-4.5,3.63,15.39,15.39,0,0,1-6.55,1.33,22.77,22.77,0,0,1-5.9-.75,11.83,11.83,0,0,1-4.18-1.84c-.39-.19-.6-.69-.65-1.51l-.43-7.78v-.07c0-.19.12-.3.36-.32a.44.44,0,0,1,.5.25,26.38,26.38,0,0,0,4.9,7.42,9,9,0,0,0,6.62,3.09,5.62,5.62,0,0,0,3.82-1.37,5.14,5.14,0,0,0,1.58-4.1,7,7,0,0,0-2.19-5.36,30.07,30.07,0,0,0-6.45-4.29,50.24,50.24,0,0,1-4.57-2.77,11.27,11.27,0,0,1-2.88-2.92,7.07,7.07,0,0,1-1.19-4.1,7.61,7.61,0,0,1,3.5-6.59,14.47,14.47,0,0,1,8.46-2.41,21.94,21.94,0,0,1,4.42.47,19.94,19.94,0,0,1,3.93,1.19,2.23,2.23,0,0,1,.79.57,1.79,1.79,0,0,1,.29.79l.14,6.63q0,.29-.36.36c-.24.05-.41,0-.5-.15a14.68,14.68,0,0,0-1.73-3.34,13.76,13.76,0,0,0-3.42-3.53,8,8,0,0,0-4.79-1.55,5,5,0,0,0-3.81,1.37,4.9,4.9,0,0,0-1.3,3.53A6,6,0,0,0,1391.48,342.38Z" transform="translate(-432.74 -320.17)"/></svg>